<svg xmlns="http://www.w3.org/2000/svg" viewBox="0 0 64 64" role="img" aria-label="Stage Builder">
  <defs>
    <linearGradient id="sb-bg" x1="8" y1="6" x2="58" y2="58" gradientUnits="userSpaceOnUse">
      <stop offset="0%" stop-color="#d4c9ff"/>
      <stop offset="42%" stop-color="#9a86ff"/>
      <stop offset="100%" stop-color="#6f5fd4"/>
    </linearGradient>
    <linearGradient id="sb-fold" x1="34" y1="18" x2="64" y2="64" gradientUnits="userSpaceOnUse">
      <stop offset="0%" stop-color="#2a2440" stop-opacity="0.15"/>
      <stop offset="100%" stop-color="#0e0c14" stop-opacity="0.92"/>
    </linearGradient>
  </defs>
  <rect width="64" height="64" rx="14" fill="url(#sb-bg)"/>
  <path fill="url(#sb-fold)" d="M64 64V22c0-8-6-14-14-14H18L64 64z"/>
  <path fill="#ffffff" d="M36.2 17.6c-5.1 0-8.8 2.5-10.4 6.8l5.4 2.1c.9-2.4 2.8-3.7 5.1-3.7 2.2 0 3.6 1.1 3.6 2.8 0 1.7-1.1 2.5-4.2 3.4-4.5 1.3-7.4 3.1-7.4 7.5 0 4.4 3.4 7.4 8.6 7.4 3.8 0 6.8-1.5 8.7-4.2l-5.1-2.6c-1.1 1.6-2.6 2.4-4.4 2.4-2 0-3.2-1-3.2-2.6 0-1.7 1.2-2.4 4.5-3.4 4.4-1.3 7.1-3.2 7.1-7.6 0-4.5-3.6-7.3-9.7-7.3z"/>
</svg>
