<svg xmlns="http://www.w3.org/2000/svg" viewBox="0 0 824 824"><defs><style>.cls-1{fill:#16212d;}.cls-2{fill:#ff0031;}</style></defs><g id="레이어_2" data-name="레이어 2"><g id="Layer_1" data-name="Layer 1"><path class="cls-1" d="M278.67,458.33a12,12,0,0,0,12-12v-40a12,12,0,0,0-24,0v40A12,12,0,0,0,278.67,458.33Z"/><path class="cls-1" d="M266.67,149.33a12,12,0,0,0,24,0v-40a12,12,0,1,0-24,0Z"/><path class="cls-1" d="M278.67,196.33a12,12,0,0,0-12,12v40a12,12,0,1,0,24,0v-40A12,12,0,0,0,278.67,196.33Z"/><path class="cls-1" d="M278.67,359.33a12,12,0,0,0,12-12v-40a12,12,0,0,0-24,0v40A12,12,0,0,0,278.67,359.33Z"/><path class="cls-1" d="M475,557.33h40a12,12,0,0,0,0-24H475a12,12,0,0,0,0,24Z"/><path class="cls-1" d="M614,533.33H574a12,12,0,0,0,0,24h40a12,12,0,0,0,0-24Z"/><path class="cls-1" d="M376,557.33h40a12,12,0,0,0,0-24H376a12,12,0,0,0,0,24Z"/><path class="cls-1" d="M713,533.33H673a12,12,0,0,0,0,24h40a12,12,0,0,0,0-24Z"/><path class="cls-1" d="M250.38,585.62a12,12,0,0,0,8.49-3.52l24.77-24.77H317a12,12,0,0,0,0-24H290.67v-28a12,12,0,0,0-24,0v35L241.9,565.13a12,12,0,0,0,8.48,20.49Z"/><path class="cls-1" d="M180.38,655.62a12,12,0,0,0,8.48-3.51l28.29-28.29a12,12,0,1,0-17-17l-28.29,28.29a12,12,0,0,0,8.49,20.48Z"/><path class="cls-1" d="M110.38,725.62a12,12,0,0,0,8.48-3.51l28.29-28.28a12,12,0,0,0-17-17l-28.28,28.29a12,12,0,0,0,8.49,20.48Z"/><path class="cls-1" d="M821.62,552.48c.12-.16.25-.32.36-.48s.22-.37.33-.55.19-.3.27-.46.18-.37.27-.56.16-.33.23-.5.14-.37.21-.56.13-.36.19-.55.1-.38.15-.57.1-.38.14-.57.07-.44.1-.67,0-.32.07-.49a11.85,11.85,0,0,0,.06-1.19V12q0-.6-.06-1.2c0-.16-.05-.33-.07-.49s-.06-.45-.1-.67-.09-.38-.14-.57-.09-.38-.15-.57-.13-.36-.19-.55-.13-.37-.21-.55-.15-.34-.23-.51-.17-.37-.27-.56-.18-.31-.27-.46-.21-.37-.33-.55l-.36-.48c-.12-.16-.22-.31-.34-.46s-.48-.55-.74-.82a.15.15,0,0,1,0-.06l-.06,0c-.26-.26-.54-.5-.82-.74l-.44-.33c-.17-.12-.33-.25-.51-.37l-.52-.32-.48-.28c-.18-.1-.36-.18-.54-.26l-.53-.25-.53-.19-.58-.2c-.17-.06-.35-.09-.53-.14s-.4-.11-.61-.15-.41-.06-.61-.09l-.55-.08A10.88,10.88,0,0,0,812,0H278.62a10.88,10.88,0,0,0-1.14.06L277,.14c-.21,0-.42,0-.63.09s-.4.1-.6.15a5.36,5.36,0,0,0-.54.14l-.56.2-.55.19-.51.24c-.18.09-.37.17-.55.27l-.48.28L272,2l-.5.37c-.14.11-.3.21-.44.33-.29.24-.56.48-.82.74l-.06,0L3.51,270.18l0,.06c-.26.26-.5.53-.74.82l-.34.45L2,272c-.12.18-.22.36-.33.55s-.19.3-.27.46-.18.37-.27.56l-.24.5-.2.56c-.06.18-.13.36-.19.55s-.1.38-.15.57-.1.38-.14.57-.07.44-.1.67,0,.32-.07.49A11.85,11.85,0,0,0,0,278.67V812a12,12,0,0,0,12,12H545.33a11.85,11.85,0,0,0,1.19-.06l.53-.08.63-.09.6-.15a5.36,5.36,0,0,0,.54-.14l.57-.2.53-.19.53-.25c.18-.08.36-.16.54-.26l.48-.28L552,822l.5-.37c.15-.11.3-.21.44-.33s.56-.48.82-.74l.06,0L820.49,553.82a.27.27,0,0,1,.07-.08c.25-.26.49-.52.72-.8S821.51,552.63,821.62,552.48ZM278.67,62.33a12,12,0,0,0,12-12V24H783L540.36,266.67H41L266.67,41v9.36A12,12,0,0,0,278.67,62.33ZM77.14,746.86a12,12,0,0,0-17,0L24,783V290.67H533.33V800H41l36.17-36.17A12,12,0,0,0,77.14,746.86ZM557.33,283.64,800,41V533.33H772a12,12,0,0,0,0,24h11L557.33,783Z"/><polygon class="cls-2" points="783.03 24 540.36 266.67 40.97 266.67 289.71 19.19 783.03 24"/></g></g></svg>